<svg width="1920" height="363" viewBox="0 0 1920 363" fill="none" xmlns="http://www.w3.org/2000/svg">
<path fill-rule="evenodd" clip-rule="evenodd" d="M0 91.8344L80 78.9363C160 66.0382 320 40.242 480 20.8949C640 1.54777 800 -11.3503 960 14.4459C1120 40.242 1280 104.732 1440 117.631C1600 130.529 1760 91.8344 1840 72.4873L1920 53.1401V324H1840C1760 324 1600 324 1440 324C1280 324 1120 324 960 324C800 324 640 324 480 324C320 324 160 324 80 324H0V91.8344Z" fill="#313188"/>
<path fill-rule="evenodd" clip-rule="evenodd" d="M0 113.637L80 99.7835C160 85.93 320 67.223 480 46.4427C640 25.6625 800 27.809 960 55.516C1120 83.223 1236 99.7835 1396 113.637C1556 127.491 1760 113.637 1840 92.8568L1920 72.0765V363H1840C1760 363 1600 363 1440 363C1280 363 1120 363 960 363C800 363 640 363 480 363C320 363 160 363 80 363H0V113.637Z" fill="#F2F2F2"/>
</svg>
